<svg width="1200" height="1200" viewBox="0 0 1200 1200" fill="none" xmlns="http://www.w3.org/2000/svg">
<rect width="1200" height="1200" fill="white"/>
<path d="M437.583 199.148C437.583 146.451 394.784 104 342.475 104C289.799 104 247 146.816 247 199.148V747.345H247.366C250.292 939.836 406.856 1095 600 1095C794.973 1095 953 936.908 953 741.856C953 547.901 796.802 390.541 602.926 388.711V579.739C691.451 581.202 762.417 653.295 762.417 742.222C762.417 831.88 689.622 904.705 600 904.705C511.11 904.705 438.681 832.978 437.583 744.417V739.66C437.583 738.562 437.583 737.098 437.583 736H437.218L439.778 427.502L437.583 199.148Z" fill="#0033A1"/>
<path d="M527.937 608.283C463.922 608.283 411.978 556.317 411.978 492.276C411.978 428.234 463.922 376.269 527.937 376.269C591.953 376.269 643.897 428.234 643.897 492.276C643.897 556.317 591.953 608.283 527.937 608.283Z" fill="#4AC1E0"/>
<path d="M527.937 389.077C585.002 389.077 631.093 435.187 631.093 492.276C631.093 549.364 585.002 595.474 527.937 595.474C470.872 595.474 424.781 549.364 424.781 492.276C424.781 435.187 470.872 389.077 527.937 389.077ZM527.937 363.46C456.971 363.46 399.174 421.281 399.174 492.276C399.174 563.27 456.971 621.091 527.937 621.091C598.903 621.091 656.7 563.27 656.7 492.276C656.7 421.281 598.903 363.46 527.937 363.46Z" fill="white"/>
</svg>
